<?xml version="1.0" encoding="utf-8"?><svg viewBox="0 0 30 30" xmlns="http://www.w3.org/2000/svg" xmlns:xlink="http://www.w3.org/1999/xlink"><style>:root>svg{display:none}:root>svg:target{display:block}</style><svg viewBox="0 0 16 18" id="angular" xmlns="http://www.w3.org/2000/svg"><path opacity=".5" fill-rule="evenodd" clip-rule="evenodd" d="M5.478 1.383l-.624.36.042.05c.019.024.032.04.049.05l.483.28c.807.467 1.613.934 2.428 1.387.09.05.27.012.373-.047.798-.447 1.59-.905 2.381-1.362l.315-.182c.05-.029.095-.065.142-.102l.07-.055a1.996 1.996 0 01-.042-.036.267.267 0 00-.042-.033l-.189-.109-1.8-1.036a4.133 4.133 0 01-.313-.206C8.507.17 8.263-.002 8.021 0c-.26.002-.52.177-.778.35-.102.069-.203.137-.304.194-.487.276-.971.556-1.46.84zM1.202 3.841l-.658.379.637.367.003.001c.827.477 1.63.94 2.44 1.39.08.046.249-.01.349-.066.83-.469 1.656-.945 2.482-1.422l.247-.143a.958.958 0 00.125-.092c.023-.019.047-.039.075-.06l-.621-.357h-.002c-.802-.462-1.59-.915-2.381-1.36a.38.38 0 00-.316.002c-.786.442-1.567.892-2.38 1.36zM11.2 6.667l-.657.377c-.81.466-1.59.915-2.376 1.357-.084.046-.236.054-.317.01-.8-.45-1.596-.908-2.414-1.378L4.8 6.668l.429-.248v-.001h.001l.91-.526.361-.208c.42-.244.84-.486 1.265-.72.1-.055.268-.105.35-.06.807.45 1.607.912 2.433 1.387l.002.001.648.374zm-2.668 5.735v.696l.666-.382c.82-.47 1.61-.921 2.392-1.386.088-.052.14-.233.14-.354.01-.893.009-1.785.007-2.678l-.001-.39c0-.057-.007-.114-.016-.184l-.015-.123-.568.326c-.837.479-1.652.946-2.465 1.42a.307.307 0 00-.134.22c-.007.93-.006 1.86-.006 2.835zm-1.834.246c.242.144.487.288.736.43.005-.032.011-.06.017-.085a.56.56 0 00.017-.116l.002-.551c.002-.898.004-1.796-.01-2.694-.002-.116-.122-.272-.23-.337-.765-.453-1.537-.894-2.31-1.335l-.386-.22a1.211 1.211 0 00-.166-.074 4.037 4.037 0 01-.108-.043c0 .289.005.573.01.855.01.646.02 1.276-.026 1.903-.05.665.168 1.04.769 1.33.574.279 1.124.605 1.685.937zm1.863 5.3a3.081 3.081 0 00-.013-.09c-.009-.057-.017-.11-.017-.161v-.998c0-.69 0-1.378-.009-2.067-.003-.23.075-.355.277-.468.613-.342 1.22-.693 1.828-1.044h.001l.807-.466a2.15 2.15 0 01.174-.086c.038-.017.08-.036.128-.06v1.329l.001.523c.002.506.004 1.013-.01 1.52-.002.126-.078.305-.178.364-.77.462-1.55.91-2.329 1.36l-.51.293a.394.394 0 01-.087.032c-.019.005-.04.011-.063.02zm-1.726-.311l.63.363v-.718c.001-.97.001-1.895-.007-2.818-.001-.08-.09-.19-.167-.235-.963-.562-1.932-1.115-2.901-1.668l-.01-.005c-.016-.01-.038-.007-.068-.005-.016.002-.034.003-.054.003v.69c-.001.91-.001 1.82.006 2.729 0 .085.065.208.137.25.796.469 1.596.93 2.434 1.414zM.608 5.482l-.604-.347v.75c-.001.958-.002 1.878.01 2.799.002.09.134.206.233.264.724.425 1.453.842 2.181 1.26l.388.222c.07.04.142.077.229.121l.15.078v-.673c0-.975.001-1.919-.006-2.862-.001-.071-.08-.169-.149-.209-.796-.464-1.595-.923-2.432-1.403zm12.194 5.165v-.703c-.001-.972-.001-1.9.005-2.828 0-.075.066-.18.132-.218.801-.469 1.606-.931 2.445-1.414l.61-.35V6.594c.002.654.002 1.308-.004 1.962-.001.104-.031.262-.102.304-.803.475-1.613.94-2.459 1.425l-.002.002-.005.003-.003.002-.004.002-.613.352zm2.652-6.428l-.604.348c-.834.48-1.64.943-2.448 1.4-.068.04-.194.048-.26.011-.821-.465-1.64-.936-2.484-1.422h-.001l-.593-.342c.267-.153.532-.302.793-.449.62-.349 1.225-.688 1.807-1.062.438-.281.764-.266 1.195.01.578.368 1.176.705 1.796 1.053.262.148.529.298.8.453zM.001 10.034l.48.277h.002l1.053.607.4.228c.348.197.696.394 1.036.603.1.062.212.205.213.312.013.917.01 1.835.008 2.752l-.001.558c0 .02-.007.04-.018.07l-.02.063-.243-.135a46.534 46.534 0 01-.497-.28l-.393-.224c-.594-.34-1.189-.68-1.778-1.029-.103-.062-.23-.197-.232-.3C0 12.646 0 11.756.001 10.82v-.787zm15.994.689v-.687l-.677.388c-.815.467-1.591.913-2.36 1.37-.09.053-.147.228-.15.348-.009.573-.008 1.147-.007 1.72l.001.569v1.071l.087-.03a.503.503 0 00.092-.036l.527-.302c.765-.436 1.529-.873 2.285-1.322.103-.061.188-.233.195-.358.016-.318.013-.637.01-.957l-.003-.38v-1.394z"/></svg><svg viewBox="0 0 16 16" id="data" xmlns="http://www.w3.org/2000/svg"><path opacity=".5" fill-rule="evenodd" clip-rule="evenodd" d="M5.676.356A7.942 7.942 0 0113.83 2.52c-.497 1.418-1.323 2.92-2.68 3.903A7.912 7.912 0 005.676.356zM1.807 2.922A8.023 8.023 0 014.132.988c3.088.37 5.693 2.77 6.161 5.945a5.868 5.868 0 01-1.958.529c-1.027-2.574-3.76-4.031-6.528-4.54zm12.722.45c-1.2 3.009-3.354 4.787-6.19 5.037-.516 1.015-.77 1.982-.775 2.878 3.856.226 7.052-2.299 8.081-5.67a7.935 7.935 0 00-1.116-2.246zM7.63 12.227c3.711.166 6.818-1.934 8.337-4.904.018.213.033.427.033.645 0 3.92-2.85 7.244-6.584 7.902a6.586 6.586 0 01-1.786-3.643zm-1.005-.915c0-1.077.286-2.199.897-3.383a5.194 5.194 0 00-1.19-1.848c-2.94 2.303-3.391 6.602-1.011 9.445.839.3 1.77.473 2.71.473.047 0 .093-.003.139-.006.034-.003.069-.005.103-.006a7.507 7.507 0 01-1.648-4.675zm-5.42-7.536c1.58.226 3.208.772 4.417 1.682-2.76 2.266-3.575 6.132-1.993 9.247A8.074 8.074 0 010 7.969a7.91 7.91 0 011.204-4.192z"/></svg><svg viewBox="0 0 12 18" id="git" xmlns="http://www.w3.org/2000/svg"><path opacity=".5" fill-rule="evenodd" clip-rule="evenodd" d="M10.34 8.904l1.016.93c.368.335.644.984.644 1.477v3.62c0 .476-.277.69-.564.69a.78.78 0 01-.432-.148l-1.963-1.276c-.07-.045-.136-.1-.2-.16l-2.206 3.579c-.15.244-.372.384-.609.384-.236 0-.458-.141-.609-.386l-2.206-3.58c-.064.06-.13.11-.2.155l-1.963 1.269a.793.793 0 01-.443.131H.604c-.287 0-.604-.182-.604-.659v-3.619c0-.493.303-1.143.67-1.477l1.037-.93a20.998 20.998 0 01-.037-1.051C1.67 4.72 3.174 1.823 5.694.1a.591.591 0 01.663 0c2.52 1.722 4.022 4.62 4.022 7.753 0 .21-.013.587-.039 1.05zM4.53 6.545c0 .817.67 1.479 1.496 1.479.827 0 1.497-.662 1.497-1.479 0-.817-.67-1.479-1.497-1.479-.826 0-1.496.662-1.496 1.479z"/></svg><svg viewBox="0 0 18 18" id="html-css" xmlns="http://www.w3.org/2000/svg"><path opacity=".5" fill-rule="evenodd" clip-rule="evenodd" d="M3.966 2.893A2.662 2.662 0 012.864 3.98c-.28.148-.059.465-.059.465.287.435.548.873.764 1.254l-1.45 1.448H.713a.49.49 0 000 .98h1.609a.49.49 0 00.347-.143l5.295-5.29a.49.49 0 00.144-.347V.73a.49.49 0 10-.98 0v1.414L5.684 3.584c-.39-.23-.842-.511-1.29-.821 0 0-.258-.183-.428.13zm-2.316.402a1.64 1.64 0 01-1.167-.483A1.636 1.636 0 010 1.647C0 1.207.171.794.483.483A1.642 1.642 0 011.65 0c.44 0 .854.172 1.166.483.312.31.483.724.483 1.164 0 .44-.172.854-.483 1.165a1.64 1.64 0 01-1.166.483zm4.613 3.397a.56.56 0 00-.79 0l-.546.546a.56.56 0 000 .79l9.328 9.317c.217.217.645.417.95.445l2.287.208a.45.45 0 00.506-.506l-.208-2.282a1.796 1.796 0 00-.445-.95l-9.33-9.319a.56.56 0 00-.79 0l-.546.547a.56.56 0 000 .79l7.81 7.801a.294.294 0 11-.416.416l-7.81-7.803z"/></svg><svg viewBox="0 0 14 18" id="java-script" xmlns="http://www.w3.org/2000/svg"><path opacity=".5" d="M0 4.147v.377l.001 13.45c.101.01 3.836.033 5.624.016.185-.002.436-.098.54-.236.216-.289.018-.509-.231-.7-1.027-.79-.955-2.295.134-2.942a1.797 1.797 0 012.398.49 1.762 1.762 0 01-.33 2.404c-.092.074-.198.136-.272.224a.466.466 0 00.251.754.694.694 0 00.176.015l5.33.001h.377v-.343c0-1.723-.003-3.447.002-5.17 0-.273-.024-.526-.323-.637-.308-.113-.477.08-.647.295-.674.854-1.875.95-2.663.22a1.765 1.765 0 01.018-2.597 1.793 1.793 0 012.637.227c.169.215.337.412.644.308.301-.103.335-.353.334-.63-.005-1.735-.002-3.47-.002-5.204v-.322h-.401c-1.73 0-3.459-.003-5.188.003-.28 0-.53-.034-.632-.334-.096-.286.08-.453.29-.614.874-.668.981-1.84.25-2.63-.7-.757-1.923-.763-2.625-.014-.736.786-.638 1.964.229 2.635.207.161.395.322.304.61-.1.318-.365.348-.658.347C3.838 4.144 2.11 4.147.38 4.147H0z"/></svg><svg viewBox="0 0 12 17" id="react" xmlns="http://www.w3.org/2000/svg"><path opacity=".5" fill-rule="evenodd" clip-rule="evenodd" d="M.04.396c0 .28-.001.554.001.827.002.148-.01.301-.02.455-.026.36-.052.722.083 1.022.128.284.405.509.684.735.14.115.282.23.405.353.17.17.352.228.6.228l1.661-.007c2.002-.01 4.004-.02 6.004.021.819.017 1.39-.192 1.942-.738.418-.413.641-.794.594-1.362a12.95 12.95 0 01-.02-1.338c.003-.196.007-.394.007-.592H8.723v.967H7.635V.005H4.37v.96H3.279V.01H.04L.04.396zm2.184 5.585h7.563v-.947H2.224v.947zm-1.067 7.985h9.721v-.958H1.157v.958zM11.959 17H.062v-1.989H11.96V17zm-9.662-5.023h7.428l-.902-4.963H3.198l-.9 4.963z"/></svg><svg fill="none" viewBox="0 0 30 30" id="slider-nav-btn-next" xmlns="http://www.w3.org/2000/svg"><rect opacity=".15" x="-.5" y=".5" width="29" height="29" rx="3.5" transform="matrix(-1 0 0 1 29 0)" stroke="#fff"/><path d="M12 18.83l3.832-3.99-3.604-3.753L13.27 10 18 14.923 13.124 20 12 18.83z" fill="#fff"/></svg><svg fill="none" viewBox="0 0 30 30" id="slider-nav-btn-prev" xmlns="http://www.w3.org/2000/svg"><rect opacity=".15" x=".5" y=".5" width="29" height="29" rx="3.5" stroke="#fff"/><path d="M18 18.83L16.876 20 12 14.923 16.729 10l1.043 1.087-3.604 3.753L18 18.83z" fill="#fff"/></svg></svg>